<?xml version="1.0" standalone="no"?>
<!DOCTYPE svg PUBLIC "-//W3C//DTD SVG 20010904//EN"
 "http://www.w3.org/TR/2001/REC-SVG-20010904/DTD/svg10.dtd">
<svg version="1.0" xmlns="http://www.w3.org/2000/svg"
 width="120" height="640.000000pt" viewBox="0 0 640.000000 640.000000"
 preserveAspectRatio="xMidYMid meet">

<g transform="translate(0.000000,640.000000) scale(0.100000,-0.100000)"
fill="#000000" stroke="none">
<path d="M0 3200 l0 -3200 3200 0 3200 0 0 3200 0 3200 -3200 0 -3200 0 0
-3200z m3151 1837 c186 -49 339 -136 478 -275 136 -135 213 -264 265 -443 21
-76 26 -84 50 -87 19 -2 38 7 70 35 93 82 205 123 336 123 140 0 256 -48 356
-145 138 -135 185 -339 119 -524 -17 -48 -11 -70 19 -75 11 -2 61 -11 109 -19
435 -77 722 -501 628 -928 -36 -159 -109 -287 -229 -401 -117 -110 -262 -181
-422 -207 -87 -14 -3356 -15 -3454 -1 -439 64 -744 484 -662 912 75 391 417
656 820 635 61 -3 136 -13 166 -22 82 -25 93 -24 104 8 7 20 6 39 -8 76 -53
149 -70 362 -41 516 62 332 264 598 571 753 70 35 173 68 276 88 113 21 329
12 449 -19z m149 -3212 l0 -184 383 -3 382 -3 34 -24 c72 -52 88 -157 34 -222
-53 -62 4 -59 -988 -59 -992 0 -935 -3 -988 59 -58 70 -35 182 48 228 39 22
46 23 413 23 l372 0 0 178 c0 98 3 182 7 185 3 4 73 7 155 7 l148 0 0 -185z"/>
</g>
</svg>
